<mxfile host="app.diagrams.net" modified="2022-01-09T08:01:09.894Z" agent="5.0 (Macintosh; Intel Mac OS X 10_15_7) AppleWebKit/537.36 (KHTML, like Gecko) Chrome/96.0.4664.110 Safari/537.36" etag="Q6HSqh_qmBUveWqcqgw5" version="15.8.9" type="github">
  <diagram id="EQ5ZxxlDZ7IuW2nvXHbj" name="Page-1">
    <mxGraphModel dx="1298" dy="834" grid="1" gridSize="10" guides="1" tooltips="1" connect="1" arrows="1" fold="1" page="1" pageScale="1" pageWidth="827" pageHeight="1169" math="0" shadow="0">
      <root>
        <mxCell id="0" />
        <mxCell id="1" parent="0" />
        <mxCell id="scu57kikqf5zk905VMQK-1" value="" style="endArrow=none;dashed=1;html=1;rounded=0;strokeWidth=4;" edge="1" parent="1">
          <mxGeometry width="50" height="50" relative="1" as="geometry">
            <mxPoint x="120" y="360" as="sourcePoint" />
            <mxPoint x="600" y="360" as="targetPoint" />
          </mxGeometry>
        </mxCell>
        <mxCell id="scu57kikqf5zk905VMQK-2" value="用户态" style="text;html=1;align=center;verticalAlign=middle;resizable=0;points=[];autosize=1;strokeColor=#82b366;fillColor=#d5e8d4;fontStyle=1" vertex="1" parent="1">
          <mxGeometry x="120" y="320" width="50" height="20" as="geometry" />
        </mxCell>
        <mxCell id="scu57kikqf5zk905VMQK-3" value="内核态" style="text;html=1;align=center;verticalAlign=middle;resizable=0;points=[];autosize=1;strokeColor=#b85450;fillColor=#f8cecc;fontStyle=1" vertex="1" parent="1">
          <mxGeometry x="120" y="380" width="50" height="20" as="geometry" />
        </mxCell>
        <mxCell id="scu57kikqf5zk905VMQK-5" value="" style="endArrow=none;html=1;rounded=0;strokeWidth=4;" edge="1" parent="1">
          <mxGeometry width="50" height="50" relative="1" as="geometry">
            <mxPoint x="120" y="280" as="sourcePoint" />
            <mxPoint x="240" y="280" as="targetPoint" />
          </mxGeometry>
        </mxCell>
        <mxCell id="scu57kikqf5zk905VMQK-6" value="" style="endArrow=none;html=1;rounded=0;strokeWidth=4;" edge="1" parent="1">
          <mxGeometry width="50" height="50" relative="1" as="geometry">
            <mxPoint x="240" y="440" as="sourcePoint" />
            <mxPoint x="310" y="440" as="targetPoint" />
          </mxGeometry>
        </mxCell>
        <mxCell id="scu57kikqf5zk905VMQK-7" value="" style="endArrow=none;html=1;rounded=0;strokeWidth=4;" edge="1" parent="1">
          <mxGeometry width="50" height="50" relative="1" as="geometry">
            <mxPoint x="310" y="280" as="sourcePoint" />
            <mxPoint x="410" y="280" as="targetPoint" />
          </mxGeometry>
        </mxCell>
        <mxCell id="scu57kikqf5zk905VMQK-8" value="" style="endArrow=none;html=1;rounded=0;strokeWidth=4;" edge="1" parent="1">
          <mxGeometry width="50" height="50" relative="1" as="geometry">
            <mxPoint x="410" y="440" as="sourcePoint" />
            <mxPoint x="450" y="440" as="targetPoint" />
          </mxGeometry>
        </mxCell>
        <mxCell id="scu57kikqf5zk905VMQK-9" value="" style="endArrow=none;html=1;rounded=0;strokeWidth=4;" edge="1" parent="1">
          <mxGeometry width="50" height="50" relative="1" as="geometry">
            <mxPoint x="450" y="280" as="sourcePoint" />
            <mxPoint x="530" y="280" as="targetPoint" />
          </mxGeometry>
        </mxCell>
        <mxCell id="scu57kikqf5zk905VMQK-11" value="" style="endArrow=classic;html=1;rounded=0;strokeWidth=2;" edge="1" parent="1">
          <mxGeometry width="50" height="50" relative="1" as="geometry">
            <mxPoint x="240" y="280" as="sourcePoint" />
            <mxPoint x="240" y="440" as="targetPoint" />
          </mxGeometry>
        </mxCell>
        <mxCell id="scu57kikqf5zk905VMQK-12" value="" style="endArrow=classic;html=1;rounded=0;strokeWidth=2;" edge="1" parent="1">
          <mxGeometry width="50" height="50" relative="1" as="geometry">
            <mxPoint x="310" y="440" as="sourcePoint" />
            <mxPoint x="310" y="280" as="targetPoint" />
          </mxGeometry>
        </mxCell>
        <mxCell id="scu57kikqf5zk905VMQK-13" value="" style="endArrow=classic;html=1;rounded=0;strokeWidth=2;" edge="1" parent="1">
          <mxGeometry width="50" height="50" relative="1" as="geometry">
            <mxPoint x="410" y="280" as="sourcePoint" />
            <mxPoint x="410" y="440" as="targetPoint" />
          </mxGeometry>
        </mxCell>
        <mxCell id="scu57kikqf5zk905VMQK-14" value="" style="endArrow=classic;html=1;rounded=0;strokeWidth=2;" edge="1" parent="1">
          <mxGeometry width="50" height="50" relative="1" as="geometry">
            <mxPoint x="450" y="440" as="sourcePoint" />
            <mxPoint x="450" y="280" as="targetPoint" />
          </mxGeometry>
        </mxCell>
        <mxCell id="scu57kikqf5zk905VMQK-15" value="图一：应用程序的执行过程示意" style="text;html=1;align=center;verticalAlign=middle;resizable=0;points=[];autosize=1;strokeColor=none;fillColor=none;" vertex="1" parent="1">
          <mxGeometry x="235" y="220" width="180" height="20" as="geometry" />
        </mxCell>
        <mxCell id="scu57kikqf5zk905VMQK-16" value="应用程序" style="text;html=1;align=center;verticalAlign=middle;resizable=0;points=[];autosize=1;strokeColor=none;fillColor=none;" vertex="1" parent="1">
          <mxGeometry x="140" y="280" width="60" height="20" as="geometry" />
        </mxCell>
        <mxCell id="scu57kikqf5zk905VMQK-17" value="当前应用程序因&lt;br&gt;系统调用/中断/异常&lt;br&gt;而进入内核" style="text;html=1;align=center;verticalAlign=middle;resizable=0;points=[];autosize=1;strokeColor=none;fillColor=none;" vertex="1" parent="1">
          <mxGeometry x="90" y="470" width="120" height="50" as="geometry" />
        </mxCell>
        <mxCell id="scu57kikqf5zk905VMQK-18" value="" style="endArrow=classic;html=1;rounded=0;strokeWidth=2;exitX=0.517;exitY=-0.08;exitDx=0;exitDy=0;exitPerimeter=0;dashed=1;dashPattern=1 4;" edge="1" parent="1" source="scu57kikqf5zk905VMQK-17">
          <mxGeometry width="50" height="50" relative="1" as="geometry">
            <mxPoint x="390" y="440" as="sourcePoint" />
            <mxPoint x="240" y="380" as="targetPoint" />
          </mxGeometry>
        </mxCell>
        <mxCell id="scu57kikqf5zk905VMQK-19" value="系统或中断服务" style="text;html=1;align=center;verticalAlign=middle;resizable=0;points=[];autosize=1;strokeColor=none;fillColor=none;" vertex="1" parent="1">
          <mxGeometry x="223" y="440" width="100" height="20" as="geometry" />
        </mxCell>
        <mxCell id="scu57kikqf5zk905VMQK-20" value="信号处理程序" style="text;html=1;align=center;verticalAlign=middle;resizable=0;points=[];autosize=1;strokeColor=none;fillColor=none;" vertex="1" parent="1">
          <mxGeometry x="310" y="260" width="90" height="20" as="geometry" />
        </mxCell>
        <mxCell id="scu57kikqf5zk905VMQK-21" value="信号处理程序&lt;br&gt;完毕后返回内核中" style="text;html=1;align=center;verticalAlign=middle;resizable=0;points=[];autosize=1;strokeColor=none;fillColor=none;" vertex="1" parent="1">
          <mxGeometry x="310" y="480" width="110" height="30" as="geometry" />
        </mxCell>
        <mxCell id="scu57kikqf5zk905VMQK-22" value="" style="endArrow=classic;html=1;rounded=0;strokeWidth=2;exitX=0.5;exitY=-0.033;exitDx=0;exitDy=0;exitPerimeter=0;dashed=1;dashPattern=1 4;" edge="1" parent="1" source="scu57kikqf5zk905VMQK-21">
          <mxGeometry width="50" height="50" relative="1" as="geometry">
            <mxPoint x="172.03999999999996" y="451" as="sourcePoint" />
            <mxPoint x="410" y="380" as="targetPoint" />
          </mxGeometry>
        </mxCell>
        <mxCell id="scu57kikqf5zk905VMQK-23" value="转向用户态执行&lt;br&gt;信号处理程序" style="text;html=1;align=center;verticalAlign=middle;resizable=0;points=[];autosize=1;strokeColor=none;fillColor=none;" vertex="1" parent="1">
          <mxGeometry x="210" y="480" width="100" height="30" as="geometry" />
        </mxCell>
        <mxCell id="scu57kikqf5zk905VMQK-24" value="" style="endArrow=classic;html=1;rounded=0;strokeWidth=2;exitX=0.47;exitY=0;exitDx=0;exitDy=0;exitPerimeter=0;dashed=1;dashPattern=1 4;" edge="1" parent="1" source="scu57kikqf5zk905VMQK-23">
          <mxGeometry width="50" height="50" relative="1" as="geometry">
            <mxPoint x="405" y="504.01" as="sourcePoint" />
            <mxPoint x="310" y="390" as="targetPoint" />
          </mxGeometry>
        </mxCell>
        <mxCell id="scu57kikqf5zk905VMQK-25" value="内核调度" style="text;html=1;align=center;verticalAlign=middle;resizable=0;points=[];autosize=1;strokeColor=none;fillColor=none;" vertex="1" parent="1">
          <mxGeometry x="430" y="485" width="60" height="20" as="geometry" />
        </mxCell>
        <mxCell id="scu57kikqf5zk905VMQK-26" value="" style="endArrow=classic;html=1;rounded=0;strokeWidth=2;exitX=0.517;exitY=-0.1;exitDx=0;exitDy=0;exitPerimeter=0;dashed=1;dashPattern=1 4;" edge="1" parent="1" source="scu57kikqf5zk905VMQK-25">
          <mxGeometry width="50" height="50" relative="1" as="geometry">
            <mxPoint x="375" y="489.01" as="sourcePoint" />
            <mxPoint x="430" y="440" as="targetPoint" />
          </mxGeometry>
        </mxCell>
        <mxCell id="scu57kikqf5zk905VMQK-27" value="获取时间片，&lt;br&gt;继续进入用户态&lt;br&gt;执行应用程序" style="text;html=1;align=center;verticalAlign=middle;resizable=0;points=[];autosize=1;strokeColor=none;fillColor=none;" vertex="1" parent="1">
          <mxGeometry x="490" y="470" width="100" height="50" as="geometry" />
        </mxCell>
        <mxCell id="scu57kikqf5zk905VMQK-28" value="" style="endArrow=classic;html=1;rounded=0;strokeWidth=2;exitX=0.517;exitY=-0.1;exitDx=0;exitDy=0;exitPerimeter=0;dashed=1;dashPattern=1 4;" edge="1" parent="1" source="scu57kikqf5zk905VMQK-27">
          <mxGeometry width="50" height="50" relative="1" as="geometry">
            <mxPoint x="455" y="479.01" as="sourcePoint" />
            <mxPoint x="450" y="380" as="targetPoint" />
          </mxGeometry>
        </mxCell>
        <mxCell id="scu57kikqf5zk905VMQK-29" value="继续执行应用程序" style="text;html=1;align=center;verticalAlign=middle;resizable=0;points=[];autosize=1;strokeColor=none;fillColor=none;" vertex="1" parent="1">
          <mxGeometry x="430" y="260" width="110" height="20" as="geometry" />
        </mxCell>
      </root>
    </mxGraphModel>
  </diagram>
</mxfile>
